HIERARCHY
ROOT Hips
{
 OFFSET 0.000000 0.000000 0.000000
 CHANNELS 6 Xposition Yposition Zposition Yrotation Xrotation Zrotation
 JOINT Chest
 {
  OFFSET 0.000000 10.388337 0.005184
  CHANNELS 3 Yrotation Xrotation Zrotation
  JOINT Chest2
  {
   OFFSET 0.000000 10.458247 -0.010579
   CHANNELS 3 Yrotation Xrotation Zrotation
   JOINT Chest3
   {
    OFFSET 0.000000 10.415828 0.000000
    CHANNELS 3 Yrotation Xrotation Zrotation
    JOINT Chest4
    {
     OFFSET 0.000000 10.405206 0.000000
     CHANNELS 3 Yrotation Xrotation Zrotation
     JOINT Neck
     {
      OFFSET 0.000000 15.720090 0.000000
      CHANNELS 3 Yrotation Xrotation Zrotation
      JOINT Head
      {
       OFFSET 0.000000 9.732643 -0.022378
       CHANNELS 3 Yrotation Xrotation Zrotation
       End Site
       {
        OFFSET 0.000000 18.603619 -0.011814
       }
      }
     }
     JOINT RightCollar
     {
      OFFSET -3.167735 10.388953 0.000000
      CHANNELS 3 Yrotation Xrotation Zrotation
      JOINT RightShoulder
      {
       OFFSET -14.584825 0.000000 0.000000
       CHANNELS 3 Yrotation Xrotation Zrotation
       JOINT RightElbow
       {
        OFFSET 0.000000 -31.921689 0.000000
        CHANNELS 3 Yrotation Xrotation Zrotation
        JOINT RightWrist
        {
         OFFSET 0.000000 -25.835217 0.000000
         CHANNELS 3 Yrotation Xrotation Zrotation
         End Site
         {
          OFFSET 0.000000 -19.128920 0.000000
         }
        }
       }
      }
     }
     JOINT LeftCollar
     {
      OFFSET 3.167735 10.388953 0.000000
      CHANNELS 3 Yrotation Xrotation Zrotation
      JOINT LeftShoulder
      {
       OFFSET 14.584825 0.000000 0.000000
       CHANNELS 3 Yrotation Xrotation Zrotation
       JOINT LeftElbow
       {
        OFFSET 0.000000 -31.921689 0.000000
        CHANNELS 3 Yrotation Xrotation Zrotation
        JOINT LeftWrist
        {
         OFFSET 0.000000 -25.835217 0.000000
         CHANNELS 3 Yrotation Xrotation Zrotation
         End Site
         {
          OFFSET 0.000000 -19.128920 0.000000
         }
        }
       }
      }
     }
    }
   }
  }
 }
 JOINT RightHip
 {
  OFFSET -8.403278 -0.025659 -0.002592
  CHANNELS 3 Yrotation Xrotation Zrotation
  JOINT RightKnee
  {
   OFFSET 0.000000 -44.040977 0.002477
   CHANNELS 3 Yrotation Xrotation Zrotation
   JOINT RightAnkle
   {
    OFFSET 0.000000 -42.951162 0.004189
    CHANNELS 3 Yrotation Xrotation Zrotation
    JOINT RightToe
    {
     OFFSET 0.000000 -5.494238 12.197485
     CHANNELS 3 Yrotation Xrotation Zrotation
     End Site
     {
      OFFSET 0.000000 -1.538716 6.371628
     }
    }
   }
  }
 }
 JOINT LeftHip
 {
  OFFSET 8.403278 -0.025659 -0.002592
  CHANNELS 3 Yrotation Xrotation Zrotation
  JOINT LeftKnee
  {
   OFFSET 0.000000 -44.040977 0.002477
   CHANNELS 3 Yrotation Xrotation Zrotation
   JOINT LeftAnkle
   {
    OFFSET 0.000000 -42.951162 0.004189
    CHANNELS 3 Yrotation Xrotation Zrotation
    JOINT LeftToe
    {
     OFFSET 0.000000 -5.494238 12.197485
     CHANNELS 3 Yrotation Xrotation Zrotation
     End Site
     {
      OFFSET 0.000000 -1.538716 6.371628
     }
    }
   }
  }
 }
}
MOTION
Frames: 5
Frame Time: 0.008333
0.000000 92.319940 0.000000 0.000000 -5.767889 0.000000 0.000000 11.653876 0.000000 0.000000 -5.885988 0.000000 0.000000 -0.000000 0.000000 0.000000 -0.000000 0.000000 0.000000 12.528808 0.000000 0.000000 0.711711 0.000000 0.000000 -0.000000 0.000000 0.000000 0.000000 -90.000000 0.000000 -2.309063 0.000000 0.000000 2.309063 0.000000 0.000000 -0.000000 0.000000 0.000000 -0.000000 90.000000 0.000000 -2.309063 0.000000 0.000000 2.309063 0.000000 0.000000 8.520374 0.000000 0.000000 1.905768 0.000000 -0.000000 -4.658254 0.000000 0.000000 -0.000000 0.000000 0.000000 8.520374 0.000000 0.000000 1.905768 0.000000 -0.000000 -4.658254 0.000000 0.000000 -0.000000 0.000000
-49.303123 93.005068 138.159690 76.063172 -6.752223 1.718417 -2.324618 1.012075 2.333045 -0.051354 0.012174 0.035092 -0.091988 0.021830 0.062857 -2.578949 0.653127 1.757853 13.357208 21.836980 2.019311 23.602572 5.331437 0.069250 -4.983089 3.316503 -6.129022 -0.905411 0.701804 -27.627472 -24.669860 -57.224327 61.589975 3.927963 23.343568 11.866980 0.089382 1.261482 6.466796 -21.212660 -1.369658 32.240266 -40.690064 -22.548752 -17.838931 -1.433496 -4.945941 -0.504533 3.206093 15.815971 -2.633839 -6.826937 -1.505100 1.411755 -6.304506 -6.994746 1.927708 0.127390 0.160395 -0.021080 12.764877 -1.477525 6.941259 22.272900 10.015749 2.170620 -5.456299 0.283563 -8.471235 -0.374706 -0.773577 0.257457
-49.214001 93.008801 137.980883 75.470924 -6.842386 1.856720 -2.558193 1.139052 2.462409 -0.061180 0.014464 0.040405 -0.109426 0.025903 0.072263 -2.823571 0.715418 1.857096 13.681411 21.852752 1.791609 24.250054 5.437961 -0.415940 -5.114175 3.201878 -6.367591 -1.243843 -0.057964 -28.161064 -27.294793 -58.351797 64.683297 4.644890 23.952434 13.075015 0.105674 1.175449 6.689928 -21.157601 -1.024029 32.843754 -40.755262 -23.700098 -18.661039 -1.426747 -4.850715 -1.306020 3.186949 15.644540 -2.969763 -6.598754 -1.028093 1.334468 -5.954878 -7.263831 2.129196 0.114209 0.229371 -0.018524 13.197749 -1.375049 6.862960 22.432561 10.413349 2.180181 -5.358043 -0.090663 -8.543994 -0.449662 -0.792438 0.285902
-49.124726 93.010708 137.770061 74.864214 -6.888758 1.994971 -2.802471 1.236400 2.600138 -0.071377 0.016937 0.046182 -0.127478 0.030292 0.082473 -3.052042 0.778760 1.964015 14.000832 21.864617 1.562971 24.889011 5.540565 -0.901105 -5.245322 3.080333 -6.607461 -1.664490 -0.885824 -28.736521 -30.382006 -59.247691 68.321435 5.202037 24.497961 14.229090 0.121452 1.088315 6.923262 -21.025469 -0.687716 33.454849 -40.785831 -24.891546 -19.511302 -1.440851 -4.776016 -2.015762 3.125290 15.399636 -3.342738 -6.345378 -0.515598 1.264892 -5.595297 -7.541967 2.347475 0.102284 0.300258 -0.019579 13.623779 -1.319090 6.759248 22.589680 10.872821 2.210109 -5.238461 -0.573204 -8.655955 -0.501771 -0.779036 0.334938
-49.038359 93.010704 137.533723 74.225562 -6.899213 2.139896 -3.046017 1.316369 2.743565 -0.081807 0.019553 0.052432 -0.145899 0.034927 0.093499 -3.263809 0.841657 2.078485 14.315740 21.873997 1.334482 25.519559 5.641604 -1.384198 -5.373926 2.951603 -6.848701 -2.166860 -1.805913 -29.354333 -33.860650 -59.859200 72.449962 5.582581 24.989822 15.315193 0.136691 0.996939 7.170690 -20.821321 -0.360362 34.074914 -40.785010 -26.119229 -20.382746 -1.448521 -4.733532 -2.593028 3.054067 15.086551 -3.746386 -6.079251 0.034038 1.199161 -5.222562 -7.832690 2.575675 0.091336 0.376505 -0.020407 14.044785 -1.298116 6.632791 22.740742 11.396655 2.255176 -5.074500 -1.134258 -8.782987 -0.548036 -0.760227 0.378083
